<?xml version="1.0" standalone="no"?>
<!DOCTYPE svg PUBLIC "-//W3C//DTD SVG 20010904//EN"
 "http://www.w3.org/TR/2001/REC-SVG-20010904/DTD/svg10.dtd">
<svg version="1.0" xmlns="http://www.w3.org/2000/svg"
 width="34.000000pt" height="34.000000pt" viewBox="0 0 34.000000 34.000000"
 preserveAspectRatio="xMidYMid meet">

<g transform="translate(0.000000,34.000000) scale(0.100000,-0.100000)"
fill="#000000" stroke="none">
<path d="M136 244 c-18 -18 -20 -30 -6 -39 6 -3 10 -17 10 -31 0 -13 -4 -24
-10 -24 -16 0 -11 -37 6 -44 27 -11 61 -7 74 9 16 20 6 45 -19 45 -30 0 -33
16 -6 28 14 7 25 18 25 26 0 8 2 20 5 28 8 20 -60 22 -79 2z m44 -18 c0 -8 -4
-17 -9 -21 -12 -7 -24 12 -16 25 9 15 25 12 25 -4z m10 -96 c0 -5 -9 -10 -20
-10 -11 0 -20 5 -20 10 0 6 9 10 20 10 11 0 20 -4 20 -10z"/>
</g>
</svg>
